<svg xmlns="http://www.w3.org/2000/svg"><style>:root svg:not(:target){display:none}</style><svg viewBox="0 0 128 24" fill="currentColor" id="cat-energy"><g clip-path="url(#cat-energy_0)"><path d="M1.62 21.96a9.43 9.43 0 0 1-1.6-5.72V7.76a9.56 9.56 0 0 1 1.5-5.82C2.62.61 4.32 0 6.83 0c2.5 0 4.1.61 5.1 1.74a7.43 7.43 0 0 1 1.51 5v2.04h-4.9V6.43a5.4 5.4 0 0 0-.3-2.04 1.42 1.42 0 0 0-1.4-.82c-.71 0-1.21.2-1.41.72a6.72 6.72 0 0 0-.3 2.25v10.92a4.3 4.3 0 0 0 .4 2.15c.2.5.7.71 1.4.71s1.1-.2 1.3-.71c.23-.7.33-1.42.3-2.15v-2.45h4.91v2.05a7.92 7.92 0 0 1-1.5 5.1c-1 1.23-2.7 1.84-5.1 1.84-2.41-.1-4.22-.71-5.22-2.04ZM19.35.3h5.7l4.21 23.3h-4.6l-.8-4.91h-3.31l-.8 4.9h-4.7L19.34.31Zm4.1 15.33-1.2-9.1-1.2 9.1h2.4Zm9.32-11.44h-3.4V.3h11.9v3.78h-3.4v19.5h-5.1V4.2ZM50.4.3h8.8v2.46h-5.7v7.66h4.6v2.35h-4.6v8.57h5.7v2.35h-8.9V.31h.1Zm11.4 0h2.21l6.51 15.43V.3h2.6v23.28h-2l-6.6-15.93v15.93H61.8V.31Zm14.33 0h8.81v2.46h-5.7v7.66h4.6v2.35h-4.6v8.57h5.7v2.35h-8.81V.31Zm11.41 0h4.61a7.9 7.9 0 0 1 5.1 1.44c1.1.92 1.6 2.55 1.6 4.7 0 2.96-.9 4.8-2.8 5.4l3.21 11.65h-3.1l-3-10.93h-2.51V23.5h-3.2V.3h.1Zm4.41 10.01c1.03.1 2.06-.2 2.9-.81.6-.51.9-1.53.9-3.07a6.72 6.72 0 0 0-.3-2.24 2.58 2.58 0 0 0-1.1-1.23 4.49 4.49 0 0 0-2.2-.4h-1.4v7.65h1.2v.1Zm10.91 11.55a10.49 10.49 0 0 1-1.4-5.93V8.17a17 17 0 0 1 .5-4.4c.34-1.06 1-2 1.9-2.65 1.12-.67 2.41-1 3.71-.92 2.1 0 3.6.51 4.5 1.64a7.93 7.93 0 0 1 1.41 5.1v.82h-3v-.71c0-.86-.07-1.71-.2-2.56a2.05 2.05 0 0 0-.8-1.32 3.05 3.05 0 0 0-1.9-.51 2.96 2.96 0 0 0-2.01.6 2.3 2.3 0 0 0-.8 1.64c-.13.92-.2 1.84-.2 2.76v8.68a9.43 9.43 0 0 0 .6 3.88c.4.82 1.2 1.12 2.4 1.12a2.38 2.38 0 0 0 2.4-1.22c.53-1.3.77-2.69.7-4.09V14.4h-2.9v-2.35h5.81V23.6h-2l-.3-2.65a4.17 4.17 0 0 1-1.56 2.2c-.74.53-1.64.8-2.55.76a4.92 4.92 0 0 1-4.3-2.04Zm17.13-6.44L115.09.41h3l3.5 11.23L125 .41h3l-4.9 15.01v8.17h-3.01v-8.17h-.1Z"></path></g><defs><clipPath id="cat-energy_0"><path fill="#fff" d="M0 0h128v24H0z"></path></clipPath></defs></svg><svg viewBox="0 0 21 20" fill="none" id="email-stroke"><path d="M1.5 8.5v8h17.004v-8M1.5 3.5h17.004v2l-8.502 6-8.502-6v-2Z" stroke="#currentColor" stroke-linecap="round" stroke-linejoin="round"></path></svg><svg viewBox="0 0 27 35" fill="currentColor" id="html-academy"><g clip-path="url(#html-academy_0)"><path d="M13.643.516 13.5.5 0 1.907v24.606L13.5 34.5 27 26.513V1.907L13.643.516Zm11.591 25L13.5 32.456 1.766 25.515V15.43l11.685 6.916.02 1.253-8.017-4.743-.011 1.225 8.046 4.809.02 1.286-8.045-4.758-.01 1.226L13.5 27.45l8.124-4.833V17.41l3.62-2.15-.01 10.256Zm0-11.564-3.22 1.88-1.482.875-7.065-4.187-.011 1.225 6.04 3.573-.053.031-.13.076-.86.492-4.986-2.948-.011 1.225 3.936 2.328-.933.61-.021.012-2.971-1.742-.011 1.225 1.947 1.135-1.988 1.186-11.618-6.872 11.638-6.958 11.8 6.834Zm0-1.225L13.44 5.81 1.766 12.72V3.49L13.5 2.264 25.234 3.49v9.237Z"></path></g><defs><clipPath id="html-academy_0"><path fill="#fff" transform="translate(0 .5)" d="M0 0h27v34H0z"></path></clipPath></defs></svg><svg fill="none" id="icon-arrow" viewBox="0 0 32 12"><path stroke="#000" stroke-width="2" d="M0 6h18"></path><path d="m24 6-6.75 5.196V.804L24 6Z" fill="#000"></path></svg><svg fill="none" id="icon-gift" viewBox="0 0 78 81"><path d="M64.016 35.633H14.03c-1.754 0-3.182-1.419-3.182-3.162v-9.472c0-1.744 1.428-3.162 3.182-3.162h49.984c1.754 0 3.18 1.418 3.18 3.162v9.473c0 1.742-1.426 3.16-3.18 3.16ZM14.03 22.26a.752.752 0 0 0-.744.739v9.473c0 .407.334.738.744.738h49.984c.41 0 .743-.331.743-.739V23c0-.401-.34-.74-.743-.74H14.03Z" fill="#fff"></path><path d="M57.045 68.082H20.999c-3.377 0-6.125-2.73-6.125-6.089V34.421c0-.669.546-1.212 1.219-1.212s1.219.543 1.219 1.212v27.572c0 2.022 1.654 3.666 3.687 3.666h36.046c2.032 0 3.686-1.644 3.686-3.666V34.421c0-.669.546-1.212 1.219-1.212.672 0 1.218.543 1.218 1.212v27.572c0 3.358-2.747 6.09-6.123 6.09Z" fill="#fff"></path><path d="M39.023 68.082a1.215 1.215 0 0 1-1.22-1.211V34.42c0-.669.547-1.212 1.22-1.212.672 0 1.218.543 1.218 1.212V66.87c0 .67-.545 1.212-1.218 1.212ZM23.811 22.256c-3.814-2.055-5.238-6.812-3.173-10.605 2.064-3.79 6.848-5.206 10.665-3.155 5.814 3.13 8.954 11.865 9.084 12.235l-2.3.804c-.029-.083-2.961-8.225-7.944-10.908-2.635-1.416-5.937-.439-7.36 2.178-1.426 2.619-.444 5.902 2.19 7.32l-1.162 2.13Z" fill="#fff"></path><path d="m54.231 22.256-1.16-2.132a5.377 5.377 0 0 0 2.622-3.208 5.332 5.332 0 0 0-.431-4.11 5.382 5.382 0 0 0-3.226-2.605 5.423 5.423 0 0 0-4.134.426c-4.982 2.682-7.915 10.825-7.944 10.907l-2.3-.804c.131-.37 3.27-9.104 9.084-12.234a7.856 7.856 0 0 1 5.99-.618 7.8 7.8 0 0 1 4.674 3.773 7.726 7.726 0 0 1 .623 5.955 7.79 7.79 0 0 1-3.798 4.65ZM61.95 51.857H16.093a1.215 1.215 0 0 1-1.219-1.211c0-.669.546-1.211 1.219-1.211H61.95c.672 0 1.218.542 1.218 1.21 0 .67-.545 1.212-1.218 1.212Z" fill="#fff"></path></svg><svg fill="none" id="mobile-nav-button-open" viewBox="0 0 20 20"><path transform="scale(.97098 1.0282) rotate(-45 24.51 7.237)" stroke="#000" stroke-width="1.5" d="M0-.75h24.758"></path><path transform="matrix(.68659 .72705 -.68659 .72705 1 2)" stroke="#000" stroke-width="1.5" d="M0-.75h24.758"></path></svg><svg fill="none" id="mobile-nav-button" viewBox="0 0 24 24"><path stroke="#000" stroke-width="2" d="M0 3h24M0 11h24M0 19h24"></path></svg><svg viewBox="0 0 21 20" fill="none" id="phone-stroke"><path d="M10.002 10h8.502m0 0-2.5-2.5m2.5 2.5-2.5 2.5m-7.502-10v5h-3v5h3v5h-2.5C4.5 17.5 3.5 16.5 3.5 15V5c0-1.5 1-2.5 2.5-2.5h2.5Z" stroke="#currentColor" stroke-linecap="round" stroke-linejoin="round"></path></svg><svg viewBox="0 0 60 60" fill="currentColor" id="plus"><path stroke="currentColor" d="M31 0v60M60 31H0"></path></svg><svg id="stack"><style>:root svg:not(:target){display:none}</style><svg fill="none" id="stack_0" viewBox="0 0 40 40"><rect x="1" y="1" width="38" height="38" rx="19" fill="#fff"></rect><path d="m16 11-8 9 8 9V11Zm16 9-8-9v18l8-9Z" fill="#666"></path><rect x="1" y="1" width="38" height="38" rx="19" stroke="#666" stroke-width="2"></rect></svg><svg fill="none" id="stack_1" viewBox="0 0 60 60"><path stroke="#D3D3D3" stroke-width="2" d="M31 0v60m29-29H0"></path></svg><svg viewBox="0 0 27 35" fill="currentColor" id="stack_2"><g clip-path="url(#stack_164_2_0)"><path d="M13.643.516 13.5.5 0 1.907v24.606L13.5 34.5 27 26.513V1.907L13.643.516Zm11.591 25L13.5 32.456 1.766 25.515V15.43l11.685 6.916.02 1.253-8.017-4.743-.011 1.225 8.046 4.809.02 1.286-8.045-4.758-.01 1.226L13.5 27.45l8.124-4.833V17.41l3.62-2.15-.01 10.256Zm0-11.564-3.22 1.88-1.482.875-7.065-4.187-.011 1.225 6.04 3.573-.053.031-.13.076-.86.492-4.986-2.948-.011 1.225 3.936 2.328-.933.61-.021.012-2.971-1.742-.011 1.225 1.947 1.135-1.988 1.186-11.618-6.872 11.638-6.958 11.8 6.834Zm0-1.225L13.44 5.81 1.766 12.72V3.49L13.5 2.264 25.234 3.49v9.237Z"></path></g><defs><clipPath id="stack_3"><path fill="#fff" transform="translate(0 .5)" d="M0 0h27v34H0z"></path></clipPath></defs></svg><svg fill="none" id="stack_4" viewBox="0 0 28 22"><path fill-rule="evenodd" clip-rule="evenodd" d="M23.46 3.153c.18.15.265.382.227.611l-2.626 15.757a.657.657 0 0 1-1.012.439l-7.878-5.253a.657.657 0 0 1-.149-.956l2.611-3.263-4.36 2.906a.657.657 0 0 1-.658.041L4.363 10.81a.657.657 0 0 1 .073-1.205l18.383-6.566a.657.657 0 0 1 .642.115Zm-17.134 7.17 3.536 1.768 7.561-5.041a.656.656 0 0 1 .877.956l-4.805 6.006 6.438 4.292L22.208 4.65 6.326 10.323Z" fill="#666"></path></svg><svg fill="none" id="stack_5" viewBox="0 0 28 22"><path d="M1 5.339c0-.855.515-1.316 1.545-1.383l3.97.025a.52.52 0 0 1 .533.377c.409 1.257.866 2.343 1.372 3.257.506.913 1.168 1.965 1.985 3.156a.36.36 0 0 0 .346.226c.125 0 .223-.059.293-.176l.08-.277.027-4.35c0-.302-.075-.503-.226-.604-.151-.1-.431-.176-.84-.226-.32-.05-.48-.235-.48-.553 0-.067.01-.118.027-.151.373-1.09 1.44-1.635 3.198-1.635L14.322 3c.675 0 1.234.16 1.678.478.444.318.666.821.666 1.509v5.708c.125.084.24.126.347.126.266 0 .497-.15.692-.453 1.954-2.582 3.011-4.308 3.17-5.18 0-.017.019-.059.054-.126.125-.251.329-.47.613-.654.284-.184.533-.31.746-.377a.554.554 0 0 1 .24-.05h4.13l.266.025c.355 0 .63.16.826.478.07.1.12.21.146.327.027.117.045.234.054.352.009.117.013.184.013.2v.177c-.124.687-.44 1.42-.946 2.2-.506.78-1.15 1.622-1.931 2.528-.782.905-1.27 1.5-1.466 1.785-.16.201-.24.386-.24.553 0 .135.071.286.213.453l3.89 4.627c.213.269.32.562.32.88 0 .386-.16.705-.48.956-.32.252-.701.394-1.145.428l-.453.025h-4.05a.855.855 0 0 0-.106.012.862.862 0 0 1-.107.013c-.39 0-.755-.16-1.092-.478-.125-.134-.96-1.123-2.505-2.967a1.387 1.387 0 0 0-.373-.327c-.07.268-.164.654-.28 1.157-.115.503-.2.863-.253 1.081l-.08.427c-.177.587-.55.94-1.119 1.057l-.373.025h-2.61c-1.475 0-2.945-.637-4.41-1.911-1.466-1.275-2.784-2.922-3.957-4.942-1.172-2.02-2.264-4.372-3.277-7.054A1.916 1.916 0 0 1 1 5.338Zm16.013 6.513c-.373 0-.71-.096-1.013-.29-.302-.192-.453-.456-.453-.791V4.987c0-.336-.089-.575-.266-.717-.178-.143-.489-.214-.933-.214l-1.518.05c-.764 0-1.341.126-1.732.378.781.352 1.172.922 1.172 1.71v4.426a1.5 1.5 0 0 1-.533 1.044 1.59 1.59 0 0 1-1.066.414c-.532 0-.94-.243-1.225-.729C8.06 9.371 7.03 7.493 6.356 5.716l-.24-.654-3.544-.025c-.231 0-.36.013-.386.038-.027.025-.04.096-.04.213 0 .151.017.31.053.478l.56 1.409c1.491 3.638 3.112 6.505 4.862 8.6 1.75 2.096 3.468 3.144 5.155 3.144h2.665c.106 0 .186-.03.24-.088.053-.06.097-.172.133-.34l.053-.251.506-2.213c.142-.302.267-.503.373-.604a.975.975 0 0 1 .693-.277c.426 0 .861.243 1.305.73l2.265 2.716c.142.218.293.327.453.327h4.396c.533 0 .8-.126.8-.378a.466.466 0 0 0-.08-.251l-3.864-4.552c-.302-.352-.453-.73-.453-1.131 0-.403.142-.788.427-1.157.23-.336.679-.893 1.345-1.673a37.63 37.63 0 0 0 1.745-2.187c.498-.68.826-1.296.986-1.849l.08-.327a.371.371 0 0 1-.027-.163.574.574 0 0 0-.026-.189h-4.183c-.267.1-.48.252-.64.453l-.16.478c-.444 1.156-1.607 2.942-3.49 5.356a1.892 1.892 0 0 1-1.305.503Z" fill="#666"></path></svg><svg viewBox="0 0 28 22" fill="currentColor" id="stack_6"><path d="m17.85 10.793-5.236-3.491a.655.655 0 0 0-1.014.545v6.982a.654.654 0 0 0 1.014.546l5.237-3.491a.655.655 0 0 0 0-1.091Zm-4.94 2.814V9.07l3.403 2.27-3.404 2.268Zm12.48-8.563a2.4 2.4 0 0 0-1.452-1.637C20.218 1.978 14.251 2 14 2c-.25 0-6.218-.022-9.938 1.407A2.4 2.4 0 0 0 2.61 5.044C2.327 6.113 2 8.076 2 11.338c0 3.262.327 5.226.61 6.295a2.4 2.4 0 0 0 1.452 1.636c3.72 1.43 9.687 1.407 9.938 1.407h.076c.753 0 6.317-.043 9.862-1.407a2.4 2.4 0 0 0 1.451-1.636c.284-1.07.611-3.033.611-6.295s-.327-5.225-.61-6.294Zm-1.266 12.261a1.09 1.09 0 0 1-.655.742c-3.49 1.342-9.404 1.32-9.469 1.32-.066 0-5.978.022-9.47-1.32a1.09 1.09 0 0 1-.654-.742c-.261-1.003-.567-2.847-.567-5.967 0-3.12.306-4.963.567-5.967a1.09 1.09 0 0 1 .655-.742C8.02 3.287 13.935 3.31 14 3.31c.066 0 5.978-.022 9.47 1.32a1.092 1.092 0 0 1 .654.742c.262 1.004.567 2.847.567 5.967 0 3.12-.305 4.964-.567 5.967Z"></path></svg><svg fill="none" id="stack_7" viewBox="0 0 21 20"><path d="M1.5 8.5v8h17.004v-8M1.5 3.5h17.004v2l-8.502 6-8.502-6v-2Z" stroke="#000" stroke-linecap="round" stroke-linejoin="round"></path></svg><svg fill="none" id="stack_8" viewBox="0 0 21 20"><path d="M10.002 10h8.502m0 0-2.5-2.5m2.5 2.5-2.5 2.5m-7.502-10v5h-3v5h3v5h-2.5C4.5 17.5 3.5 16.5 3.5 15V5c0-1.5 1-2.5 2.5-2.5h2.5Z" stroke="#000" stroke-linecap="round" stroke-linejoin="round"></path></svg><svg fill="none" id="stack_9" viewBox="0 0 101 18"><g clip-path="url(#stack_164_9_0)" fill="#111"><path d="M1.264 16.538A6.865 6.865 0 0 1 0 12.231V5.846a6.95 6.95 0 0 1 1.185-4.384C2.055.462 3.398 0 5.374 0s3.24.462 4.03 1.308a5.422 5.422 0 0 1 1.186 3.769v1.538H6.718V4.846a3.693 3.693 0 0 0-.238-1.538 1.12 1.12 0 0 0-.456-.473 1.163 1.163 0 0 0-.65-.143c-.553 0-.948.154-1.106.539a4.846 4.846 0 0 0-.237 1.692v8.23a3.111 3.111 0 0 0 .316 1.616c.158.385.553.539 1.106.539s.87-.154 1.027-.539c.18-.52.26-1.067.238-1.615v-1.846h3.872v1.538a5.775 5.775 0 0 1-1.185 3.846c-.79.923-2.134 1.385-4.031 1.385-1.897-.077-3.32-.539-4.11-1.539ZM15.253.23h4.504l3.32 17.54H19.44l-.632-3.693H16.2l-.632 3.692h-3.715l3.4-17.538Zm3.24 11.54-.948-6.847-.949 6.846h1.897Zm7.35-8.616h-2.687V.23h9.404v2.846h-2.687v14.692h-4.03V3.154ZM39.752.23h6.955v1.847h-4.505v5.77h3.635v1.768h-3.635v6.462h4.505v1.77h-7.034V.23h.079Zm9.009 0H50.5l5.137 11.616V.231h2.055v17.538h-1.58l-5.217-12v12h-2.134V.231Zm11.302 0h6.954v1.847h-4.504v5.77h3.635v1.768h-3.635v6.462h4.504v1.77h-6.954V.23Zm9.009 0h3.635a6.451 6.451 0 0 1 4.03 1.078c.87.692 1.265 1.923 1.265 3.538 0 2.23-.71 3.616-2.212 4.077l2.528 8.77h-2.45l-2.37-8.231h-1.976v8.23h-2.529V.231h.079Zm3.477 7.54a3.524 3.524 0 0 0 2.292-.616c.474-.385.711-1.154.711-2.308a4.848 4.848 0 0 0-.237-1.692 1.975 1.975 0 0 0-.869-.923 3.69 3.69 0 0 0-1.739-.308h-1.106v5.77h.948v.076Zm8.614 8.692A7.613 7.613 0 0 1 80.058 12V6.154a12.26 12.26 0 0 1 .395-3.308 3.916 3.916 0 0 1 1.502-2c.882-.508 1.9-.75 2.924-.692 1.66 0 2.845.384 3.556 1.23a5.77 5.77 0 0 1 1.107 3.847v.615H87.17v-.538a11.04 11.04 0 0 0-.158-1.923 1.533 1.533 0 0 0-.633-1A2.493 2.493 0 0 0 84.878 2a2.416 2.416 0 0 0-1.58.462c-.187.152-.338.34-.447.551a1.701 1.701 0 0 0-.186.68 14.01 14.01 0 0 0-.158 2.076v6.539a6.816 6.816 0 0 0 .474 2.923c.316.615.949.846 1.897.846.374.045.754-.018 1.092-.182.337-.165.617-.422.805-.741a6.908 6.908 0 0 0 .553-3.077v-1.23h-2.292v-1.77h4.584v8.692h-1.58l-.238-2a3.143 3.143 0 0 1-1.226 1.658 3.288 3.288 0 0 1-2.014.573 4.046 4.046 0 0 1-1.899-.352 3.932 3.932 0 0 1-1.5-1.186Zm13.515-4.847L90.805.308h2.371l2.766 8.461L98.63.308H101l-3.872 11.307v6.154h-2.371v-6.154h-.08Z"></path></g><defs><clipPath id="stack_10"><path fill="#fff" d="M0 0h101v18H0z"></path></clipPath></defs></svg><svg fill="none" id="stack_11" viewBox="0 0 20 20"><path transform="matrix(.68659 -.72705 .68659 .72705 2.002 20)" stroke="#000" stroke-width="1.5" d="M0-.75h24.758"></path><path transform="matrix(.68659 .72705 -.68659 .72705 1 2)" stroke="#000" stroke-width="1.5" d="M0-.75h24.758"></path></svg><svg fill="none" id="stack_12" viewBox="0 0 24 24"><path stroke="#000" stroke-width="2" d="M0 3h24M0 11h24M0 19h24"></path></svg><svg fill="none" id="stack_13" viewBox="0 0 32 12"><path stroke="#000" stroke-width="2" d="M0 6h18"></path><path d="m24 6-6.75 5.196V.804L24 6Z" fill="#000"></path></svg><svg id="stack_14"><svg fill="none" id="stack_15" viewBox="0 0 40 40"><rect x="1" y="1" width="38" height="38" rx="19" fill="#fff"></rect><path d="m16 11-8 9 8 9V11Zm16 9-8-9v18l8-9Z" fill="#666"></path><rect x="1" y="1" width="38" height="38" rx="19" stroke="#666" stroke-width="2"></rect></svg><svg fill="none" id="stack_16" viewBox="0 0 60 60"><path stroke="#D3D3D3" stroke-width="2" d="M31 0v60m29-29H0"></path></svg><svg viewBox="0 0 27 35" fill="currentColor" id="stack_17"><g clip-path="url(#stack_164_2_0)"><path d="M13.643.516 13.5.5 0 1.907v24.606L13.5 34.5 27 26.513V1.907L13.643.516Zm11.591 25L13.5 32.456 1.766 25.515V15.43l11.685 6.916.02 1.253-8.017-4.743-.011 1.225 8.046 4.809.02 1.286-8.045-4.758-.01 1.226L13.5 27.45l8.124-4.833V17.41l3.62-2.15-.01 10.256Zm0-11.564-3.22 1.88-1.482.875-7.065-4.187-.011 1.225 6.04 3.573-.053.031-.13.076-.86.492-4.986-2.948-.011 1.225 3.936 2.328-.933.61-.021.012-2.971-1.742-.011 1.225 1.947 1.135-1.988 1.186-11.618-6.872 11.638-6.958 11.8 6.834Zm0-1.225L13.44 5.81 1.766 12.72V3.49L13.5 2.264 25.234 3.49v9.237Z"></path></g><defs><clipPath id="stack_18"><path fill="#fff" transform="translate(0 .5)" d="M0 0h27v34H0z"></path></clipPath></defs></svg><svg fill="none" id="stack_19" viewBox="0 0 28 22"><path fill-rule="evenodd" clip-rule="evenodd" d="M23.46 3.153c.18.15.265.382.227.611l-2.626 15.757a.657.657 0 0 1-1.012.439l-7.878-5.253a.657.657 0 0 1-.149-.956l2.611-3.263-4.36 2.906a.657.657 0 0 1-.658.041L4.363 10.81a.657.657 0 0 1 .073-1.205l18.383-6.566a.657.657 0 0 1 .642.115Zm-17.134 7.17 3.536 1.768 7.561-5.041a.656.656 0 0 1 .877.956l-4.805 6.006 6.438 4.292L22.208 4.65 6.326 10.323Z" fill="#666"></path></svg><svg fill="none" id="stack_20" viewBox="0 0 28 22"><path d="M1 5.339c0-.855.515-1.316 1.545-1.383l3.97.025a.52.52 0 0 1 .533.377c.409 1.257.866 2.343 1.372 3.257.506.913 1.168 1.965 1.985 3.156a.36.36 0 0 0 .346.226c.125 0 .223-.059.293-.176l.08-.277.027-4.35c0-.302-.075-.503-.226-.604-.151-.1-.431-.176-.84-.226-.32-.05-.48-.235-.48-.553 0-.067.01-.118.027-.151.373-1.09 1.44-1.635 3.198-1.635L14.322 3c.675 0 1.234.16 1.678.478.444.318.666.821.666 1.509v5.708c.125.084.24.126.347.126.266 0 .497-.15.692-.453 1.954-2.582 3.011-4.308 3.17-5.18 0-.017.019-.059.054-.126.125-.251.329-.47.613-.654.284-.184.533-.31.746-.377a.554.554 0 0 1 .24-.05h4.13l.266.025c.355 0 .63.16.826.478.07.1.12.21.146.327.027.117.045.234.054.352.009.117.013.184.013.2v.177c-.124.687-.44 1.42-.946 2.2-.506.78-1.15 1.622-1.931 2.528-.782.905-1.27 1.5-1.466 1.785-.16.201-.24.386-.24.553 0 .135.071.286.213.453l3.89 4.627c.213.269.32.562.32.88 0 .386-.16.705-.48.956-.32.252-.701.394-1.145.428l-.453.025h-4.05a.855.855 0 0 0-.106.012.862.862 0 0 1-.107.013c-.39 0-.755-.16-1.092-.478-.125-.134-.96-1.123-2.505-2.967a1.387 1.387 0 0 0-.373-.327c-.07.268-.164.654-.28 1.157-.115.503-.2.863-.253 1.081l-.08.427c-.177.587-.55.94-1.119 1.057l-.373.025h-2.61c-1.475 0-2.945-.637-4.41-1.911-1.466-1.275-2.784-2.922-3.957-4.942-1.172-2.02-2.264-4.372-3.277-7.054A1.916 1.916 0 0 1 1 5.338Zm16.013 6.513c-.373 0-.71-.096-1.013-.29-.302-.192-.453-.456-.453-.791V4.987c0-.336-.089-.575-.266-.717-.178-.143-.489-.214-.933-.214l-1.518.05c-.764 0-1.341.126-1.732.378.781.352 1.172.922 1.172 1.71v4.426a1.5 1.5 0 0 1-.533 1.044 1.59 1.59 0 0 1-1.066.414c-.532 0-.94-.243-1.225-.729C8.06 9.371 7.03 7.493 6.356 5.716l-.24-.654-3.544-.025c-.231 0-.36.013-.386.038-.027.025-.04.096-.04.213 0 .151.017.31.053.478l.56 1.409c1.491 3.638 3.112 6.505 4.862 8.6 1.75 2.096 3.468 3.144 5.155 3.144h2.665c.106 0 .186-.03.24-.088.053-.06.097-.172.133-.34l.053-.251.506-2.213c.142-.302.267-.503.373-.604a.975.975 0 0 1 .693-.277c.426 0 .861.243 1.305.73l2.265 2.716c.142.218.293.327.453.327h4.396c.533 0 .8-.126.8-.378a.466.466 0 0 0-.08-.251l-3.864-4.552c-.302-.352-.453-.73-.453-1.131 0-.403.142-.788.427-1.157.23-.336.679-.893 1.345-1.673a37.63 37.63 0 0 0 1.745-2.187c.498-.68.826-1.296.986-1.849l.08-.327a.371.371 0 0 1-.027-.163.574.574 0 0 0-.026-.189h-4.183c-.267.1-.48.252-.64.453l-.16.478c-.444 1.156-1.607 2.942-3.49 5.356a1.892 1.892 0 0 1-1.305.503Z" fill="#666"></path></svg><svg viewBox="0 0 28 22" fill="currentColor" id="stack_21"><path d="m17.85 10.793-5.236-3.491a.655.655 0 0 0-1.014.545v6.982a.654.654 0 0 0 1.014.546l5.237-3.491a.655.655 0 0 0 0-1.091Zm-4.94 2.814V9.07l3.403 2.27-3.404 2.268Zm12.48-8.563a2.4 2.4 0 0 0-1.452-1.637C20.218 1.978 14.251 2 14 2c-.25 0-6.218-.022-9.938 1.407A2.4 2.4 0 0 0 2.61 5.044C2.327 6.113 2 8.076 2 11.338c0 3.262.327 5.226.61 6.295a2.4 2.4 0 0 0 1.452 1.636c3.72 1.43 9.687 1.407 9.938 1.407h.076c.753 0 6.317-.043 9.862-1.407a2.4 2.4 0 0 0 1.451-1.636c.284-1.07.611-3.033.611-6.295s-.327-5.225-.61-6.294Zm-1.266 12.261a1.09 1.09 0 0 1-.655.742c-3.49 1.342-9.404 1.32-9.469 1.32-.066 0-5.978.022-9.47-1.32a1.09 1.09 0 0 1-.654-.742c-.261-1.003-.567-2.847-.567-5.967 0-3.12.306-4.963.567-5.967a1.09 1.09 0 0 1 .655-.742C8.02 3.287 13.935 3.31 14 3.31c.066 0 5.978-.022 9.47 1.32a1.092 1.092 0 0 1 .654.742c.262 1.004.567 2.847.567 5.967 0 3.12-.305 4.964-.567 5.967Z"></path></svg><svg fill="none" id="stack_22" viewBox="0 0 21 20"><path d="M1.5 8.5v8h17.004v-8M1.5 3.5h17.004v2l-8.502 6-8.502-6v-2Z" stroke="#000" stroke-linecap="round" stroke-linejoin="round"></path></svg><svg fill="none" id="stack_23" viewBox="0 0 21 20"><path d="M10.002 10h8.502m0 0-2.5-2.5m2.5 2.5-2.5 2.5m-7.502-10v5h-3v5h3v5h-2.5C4.5 17.5 3.5 16.5 3.5 15V5c0-1.5 1-2.5 2.5-2.5h2.5Z" stroke="#000" stroke-linecap="round" stroke-linejoin="round"></path></svg><svg fill="none" id="stack_24" viewBox="0 0 101 18"><g clip-path="url(#stack_164_9_0)" fill="#111"><path d="M1.264 16.538A6.865 6.865 0 0 1 0 12.231V5.846a6.95 6.95 0 0 1 1.185-4.384C2.055.462 3.398 0 5.374 0s3.24.462 4.03 1.308a5.422 5.422 0 0 1 1.186 3.769v1.538H6.718V4.846a3.693 3.693 0 0 0-.238-1.538 1.12 1.12 0 0 0-.456-.473 1.163 1.163 0 0 0-.65-.143c-.553 0-.948.154-1.106.539a4.846 4.846 0 0 0-.237 1.692v8.23a3.111 3.111 0 0 0 .316 1.616c.158.385.553.539 1.106.539s.87-.154 1.027-.539c.18-.52.26-1.067.238-1.615v-1.846h3.872v1.538a5.775 5.775 0 0 1-1.185 3.846c-.79.923-2.134 1.385-4.031 1.385-1.897-.077-3.32-.539-4.11-1.539ZM15.253.23h4.504l3.32 17.54H19.44l-.632-3.693H16.2l-.632 3.692h-3.715l3.4-17.538Zm3.24 11.54-.948-6.847-.949 6.846h1.897Zm7.35-8.616h-2.687V.23h9.404v2.846h-2.687v14.692h-4.03V3.154ZM39.752.23h6.955v1.847h-4.505v5.77h3.635v1.768h-3.635v6.462h4.505v1.77h-7.034V.23h.079Zm9.009 0H50.5l5.137 11.616V.231h2.055v17.538h-1.58l-5.217-12v12h-2.134V.231Zm11.302 0h6.954v1.847h-4.504v5.77h3.635v1.768h-3.635v6.462h4.504v1.77h-6.954V.23Zm9.009 0h3.635a6.451 6.451 0 0 1 4.03 1.078c.87.692 1.265 1.923 1.265 3.538 0 2.23-.71 3.616-2.212 4.077l2.528 8.77h-2.45l-2.37-8.231h-1.976v8.23h-2.529V.231h.079Zm3.477 7.54a3.524 3.524 0 0 0 2.292-.616c.474-.385.711-1.154.711-2.308a4.848 4.848 0 0 0-.237-1.692 1.975 1.975 0 0 0-.869-.923 3.69 3.69 0 0 0-1.739-.308h-1.106v5.77h.948v.076Zm8.614 8.692A7.613 7.613 0 0 1 80.058 12V6.154a12.26 12.26 0 0 1 .395-3.308 3.916 3.916 0 0 1 1.502-2c.882-.508 1.9-.75 2.924-.692 1.66 0 2.845.384 3.556 1.23a5.77 5.77 0 0 1 1.107 3.847v.615H87.17v-.538a11.04 11.04 0 0 0-.158-1.923 1.533 1.533 0 0 0-.633-1A2.493 2.493 0 0 0 84.878 2a2.416 2.416 0 0 0-1.58.462c-.187.152-.338.34-.447.551a1.701 1.701 0 0 0-.186.68 14.01 14.01 0 0 0-.158 2.076v6.539a6.816 6.816 0 0 0 .474 2.923c.316.615.949.846 1.897.846.374.045.754-.018 1.092-.182.337-.165.617-.422.805-.741a6.908 6.908 0 0 0 .553-3.077v-1.23h-2.292v-1.77h4.584v8.692h-1.58l-.238-2a3.143 3.143 0 0 1-1.226 1.658 3.288 3.288 0 0 1-2.014.573 4.046 4.046 0 0 1-1.899-.352 3.932 3.932 0 0 1-1.5-1.186Zm13.515-4.847L90.805.308h2.371l2.766 8.461L98.63.308H101l-3.872 11.307v6.154h-2.371v-6.154h-.08Z"></path></g><defs><clipPath id="stack_25"><path fill="#fff" d="M0 0h101v18H0z"></path></clipPath></defs></svg><svg fill="none" id="stack_26" viewBox="0 0 20 20"><path transform="scale(.97098 1.0282) rotate(-45 24.51 7.237)" stroke="#000" stroke-width="1.5" d="M0-.75h24.758"></path><path transform="matrix(.68659 .72705 -.68659 .72705 1 2)" stroke="#000" stroke-width="1.5" d="M0-.75h24.758"></path></svg><svg fill="none" id="stack_27" viewBox="0 0 24 24"><path stroke="#000" stroke-width="2" d="M0 3h24M0 11h24M0 19h24"></path></svg><svg fill="none" id="stack_28" viewBox="0 0 32 12"><path stroke="#000" stroke-width="2" d="M0 6h18"></path><path d="m24 6-6.75 5.196V.804L24 6Z" fill="#000"></path></svg></svg></svg><svg viewBox="0 0 28 22" fill="currentColor" id="telegram"><path fill-rule="evenodd" clip-rule="evenodd" d="M23.46 3.153c.18.15.265.382.227.611l-2.626 15.757a.657.657 0 0 1-1.012.439l-7.878-5.253a.657.657 0 0 1-.149-.956l2.611-3.263-4.36 2.906a.657.657 0 0 1-.658.041L4.363 10.81a.657.657 0 0 1 .073-1.205l18.383-6.566a.657.657 0 0 1 .642.115Zm-17.134 7.17 3.536 1.768 7.561-5.041a.656.656 0 0 1 .877.956l-4.805 6.006 6.438 4.292L22.208 4.65 6.326 10.323Z"></path></svg><svg viewBox="0 0 40 40" fill="none" id="trumb-slider"><rect x="1" y="1" width="38" height="38" rx="19" fill="#fff"></rect><path d="m16 11-8 9 8 9V11ZM32 20l-8-9v18l8-9Z" fill="currentColor"></path><rect x="1" y="1" width="38" height="38" rx="19" stroke-width="2" stroke="currentColor"></rect></svg><svg viewBox="0 0 28 22" fill="currentColor" id="vk"><path d="M1 5.339c0-.855.515-1.316 1.545-1.383l3.97.025a.52.52 0 0 1 .533.377c.409 1.257.866 2.343 1.372 3.257.506.913 1.168 1.965 1.985 3.156.071.15.187.226.346.226.125 0 .223-.059.293-.176l.08-.277.027-4.35c0-.302-.075-.503-.226-.604-.151-.1-.431-.176-.84-.226-.32-.05-.48-.235-.48-.553 0-.067.01-.118.027-.151.373-1.09 1.44-1.635 3.198-1.635L14.322 3c.675 0 1.234.16 1.678.478.444.318.666.821.666 1.509v5.708c.125.084.24.126.347.126.266 0 .497-.15.692-.453 1.954-2.582 3.011-4.308 3.17-5.18 0-.017.019-.059.054-.126.125-.251.329-.47.613-.654.284-.184.533-.31.746-.377a.554.554 0 0 1 .24-.05h4.13l.266.025c.355 0 .63.16.826.478.07.1.12.21.146.327.027.117.045.234.054.352.009.117.013.184.013.2v.177c-.124.687-.44 1.42-.946 2.2-.506.78-1.15 1.622-1.931 2.528-.782.905-1.27 1.5-1.466 1.785-.16.201-.24.386-.24.553 0 .135.071.286.213.453l3.89 4.627c.213.269.32.562.32.88 0 .386-.16.705-.48.956-.32.252-.701.394-1.145.428l-.453.025h-4.05a.855.855 0 0 0-.106.012.862.862 0 0 1-.107.013c-.39 0-.755-.16-1.092-.478-.125-.134-.96-1.123-2.505-2.967a1.387 1.387 0 0 0-.373-.327c-.07.268-.164.654-.28 1.157-.115.503-.2.863-.253 1.081l-.08.427c-.177.587-.55.94-1.119 1.057l-.373.025h-2.61c-1.475 0-2.945-.637-4.41-1.911-1.466-1.275-2.784-2.922-3.957-4.942-1.172-2.02-2.264-4.372-3.277-7.054A1.916 1.916 0 0 1 1 5.338Zm16.013 6.513c-.373 0-.71-.096-1.013-.29-.302-.192-.453-.456-.453-.791V4.987c0-.336-.089-.575-.266-.717-.178-.143-.489-.214-.933-.214l-1.518.05c-.764 0-1.341.126-1.732.378.781.352 1.172.922 1.172 1.71v4.426a1.5 1.5 0 0 1-.533 1.044 1.59 1.59 0 0 1-1.066.414c-.532 0-.94-.243-1.225-.729C8.06 9.371 7.03 7.493 6.356 5.716l-.24-.654-3.544-.025c-.231 0-.36.013-.386.038-.027.025-.04.096-.04.213 0 .151.017.31.053.478l.56 1.409c1.491 3.638 3.112 6.505 4.862 8.6 1.75 2.096 3.468 3.144 5.155 3.144h2.665c.106 0 .186-.03.24-.088.053-.06.097-.172.133-.34l.053-.251.506-2.213c.142-.302.267-.503.373-.604a.975.975 0 0 1 .693-.277c.426 0 .861.243 1.305.73l2.265 2.716c.142.218.293.327.453.327h4.396c.533 0 .8-.126.8-.378a.466.466 0 0 0-.08-.251l-3.864-4.552c-.302-.352-.453-.73-.453-1.131 0-.403.142-.788.427-1.157.23-.336.679-.893 1.345-1.673a37.63 37.63 0 0 0 1.745-2.187c.498-.68.826-1.296.986-1.849l.08-.327a.371.371 0 0 1-.027-.163.574.574 0 0 0-.026-.189h-4.183c-.267.1-.48.252-.64.453l-.16.478c-.444 1.156-1.607 2.942-3.49 5.356a1.892 1.892 0 0 1-1.305.503Z"></path></svg><svg viewBox="0 0 28 22" fill="currentColor" id="youtube"><path d="m17.85 10.793-5.236-3.491a.655.655 0 0 0-1.014.545v6.982a.654.654 0 0 0 1.014.546l5.237-3.491a.655.655 0 0 0 0-1.091Zm-4.94 2.814V9.07l3.403 2.27-3.404 2.268Zm12.48-8.563a2.4 2.4 0 0 0-1.452-1.637C20.218 1.978 14.251 2 14 2c-.25 0-6.218-.022-9.938 1.407A2.4 2.4 0 0 0 2.61 5.044C2.327 6.113 2 8.076 2 11.338c0 3.262.327 5.226.61 6.295a2.4 2.4 0 0 0 1.452 1.636c3.72 1.43 9.687 1.407 9.938 1.407h.076c.753 0 6.317-.043 9.862-1.407a2.4 2.4 0 0 0 1.451-1.636c.284-1.07.611-3.033.611-6.295s-.327-5.225-.61-6.294Zm-1.266 12.261a1.09 1.09 0 0 1-.655.742c-3.49 1.342-9.404 1.32-9.469 1.32-.066 0-5.978.022-9.47-1.32a1.09 1.09 0 0 1-.654-.742c-.261-1.003-.567-2.847-.567-5.967 0-3.12.306-4.963.567-5.967a1.09 1.09 0 0 1 .655-.742C8.02 3.287 13.935 3.31 14 3.31c.066 0 5.978-.022 9.47 1.32a1.092 1.092 0 0 1 .654.742c.262 1.004.567 2.847.567 5.967 0 3.12-.305 4.964-.567 5.967Z"></path></svg></svg>